<?xml version="1.0" encoding="utf-8"?>
<!-- Generator: Adobe Illustrator 23.0.1, SVG Export Plug-In . SVG Version: 6.00 Build 0)  -->
<svg version="1.1" id="Layer_1" xmlns="http://www.w3.org/2000/svg" xmlns:xlink="http://www.w3.org/1999/xlink" x="0px" y="0px"
	 viewBox="0 0 69 69" style="enable-background:new 0 0 69 69;" xml:space="preserve">
<style type="text/css">
	.st0{fill:none;stroke:#F36523;stroke-width:2;stroke-linecap:round;}
	.st1{fill:none;stroke:#F36523;stroke-width:2;stroke-linecap:round;stroke-linejoin:round;}
</style>
<g transform="translate(237.000000, 1003.000000)">
	<path class="st0" d="M-191.4-979.6v35.7h-6.4 M-207-943.9h-6.5v-35.7"/>
	<polygon class="st0" points="-200.3,-977.1 -200.3,-970.1 -195.9,-970.1 -195.9,-977.1 	"/>
	<polygon class="st0" points="-200.3,-966.5 -200.3,-959.5 -195.9,-959.5 -195.9,-966.5 	"/>
	<polygon class="st0" points="-209.1,-977.1 -209.1,-970.1 -204.7,-970.1 -204.7,-977.1 	"/>
	<polygon class="st0" points="-209.1,-966.5 -209.1,-959.5 -204.7,-959.5 -204.7,-966.5 	"/>
	<polyline class="st0" points="-218.4,-977.1 -202.5,-985.4 -202.5,-985.4 -186.6,-977.1 	"/>
	<polyline class="st0" points="-202.5,-985.3 -202.5,-995.1 -193.6,-993.4 -193.6,-992.1 -202.5,-988.7 	"/>
	<path class="st0" d="M-207.2-943.9h9.4"/>
	<path class="st0" d="M-202.5-944.1v-10.2"/>
	<polyline class="st0" points="-209.1,-944 -209.1,-954.7 -195.9,-954.7 -195.9,-944.5 	"/>
	<g transform="translate(0.000000, 29.200000)">
		<polyline class="st0" points="-229.9,-987.7 -229.9,-973.1 -213.4,-973.1 		"/>
		<polyline class="st0" points="-229.9,-983.9 -229.9,-998.5 -213.4,-998.5 		"/>
		<polygon class="st0" points="-223.9,-994.5 -223.9,-987.6 -219.6,-987.6 -219.6,-994.5 		"/>
		<polygon class="st0" points="-223.9,-984 -223.9,-977 -219.6,-977 -219.6,-984 		"/>
		<polyline class="st1" points="-214.2,-1002.7 -229.2,-1002.7 -229.2,-1002.7 -231.3,-998.5 -214.2,-998.5 		"/>
	</g>
	<g transform="translate(65.900000, 49.700000) scale(-1, 1) translate(-65.900000, -49.700000) translate(53.400000, 29.200000)">
		<polyline class="st0" points="253.5,-987.7 253.5,-973.1 270,-973.1 		"/>
		<polyline class="st0" points="253.5,-983.9 253.5,-998.5 270,-998.5 		"/>
		<polygon class="st0" points="259.5,-994.5 259.5,-987.6 263.8,-987.6 263.8,-994.5 		"/>
		<polygon class="st0" points="259.5,-984 259.5,-977 263.8,-977 263.8,-984 		"/>
		<polyline class="st1" points="269.2,-1002.7 254.2,-1002.7 252.1,-998.5 269.2,-998.5 		"/>
	</g>
</g>
</svg>
