<?xml version="1.0" encoding="utf-8"?>
<!-- Generator: Adobe Illustrator 23.0.1, SVG Export Plug-In . SVG Version: 6.00 Build 0)  -->
<svg version="1.1" id="Layer_1" xmlns="http://www.w3.org/2000/svg" xmlns:xlink="http://www.w3.org/1999/xlink" x="0px" y="0px"
	 viewBox="0 0 69 69" style="enable-background:new 0 0 69 69;" xml:space="preserve">
<style type="text/css">
	.st0{fill:#F36523;}
</style>
<g>
	<g>
		<path class="st0" d="M34.5,26.4c-6.9,0-12.5,5.6-12.5,12.5c0,6.9,5.6,12.4,12.5,12.4S47,45.7,47,38.8C47,31.9,41.4,26.4,34.5,26.4
			z M34.5,49.5c-5.9,0-10.7-4.8-10.7-10.7c0-5.9,4.8-10.7,10.7-10.7c5.9,0,10.7,4.8,10.7,10.7C45.2,44.7,40.4,49.5,34.5,49.5z"/>
		<path class="st0" d="M34.5,45.3c-3.6,0-6.5-2.9-6.5-6.5c0-3.6,2.9-6.5,6.5-6.5v-1.7c-4.6,0-8.3,3.7-8.3,8.3s3.7,8.3,8.3,8.3
			s8.3-3.7,8.3-8.3H41C41,42.4,38.1,45.3,34.5,45.3z"/>
		<path class="st0" d="M58.1,28.2v3.8h-5.7c-2.8-7.2-9.8-12.3-17.9-12.3c-8.2,0-15.1,5.1-17.9,12.3h-5.7v-4.3H4.4v22h6.5v-4h5.7
			C19.4,52.9,26.3,58,34.5,58s15.2-5.1,17.9-12.3h5.7v4.5h6.5v-22C64.6,28.2,58.1,28.2,58.1,28.2z M58.1,33.7v7.2h-4.5
			c0.1-0.7,0.1-1.3,0.1-2c0-1.8-0.2-3.5-0.7-5.1H58.1z M15.4,40.8h-4.5v-7.2H16c-0.5,1.6-0.7,3.4-0.7,5.1
			C15.3,39.5,15.3,40.2,15.4,40.8z M9.1,47.9h-3V29.4h3V47.9z M10.9,43.9v-1.4h4.8c0.1,0.5,0.2,0.9,0.3,1.4H10.9z M34.5,56.3
			c-9.6,0-17.5-7.8-17.5-17.5s7.8-17.5,17.5-17.5c9.6,0,17.5,7.8,17.5,17.5S44.1,56.3,34.5,56.3z M53.3,42.6h4.8v1.4H53
			C53.1,43.5,53.2,43,53.3,42.6z M62.9,48.4h-3V29.9h3V48.4z"/>
		<rect x="33.6" y="23.1" class="st0" width="1.7" height="1.8"/>
		<rect x="33.6" y="52.8" class="st0" width="1.7" height="1.8"/>
		<rect x="48.4" y="38" class="st0" width="1.8" height="1.7"/>
		<rect x="18.8" y="38" class="st0" width="1.8" height="1.7"/>
		
			<rect x="44.1" y="48.4" transform="matrix(0.7071 -0.7071 0.7071 0.7071 -21.7056 46.2667)" class="st0" width="1.7" height="1.8"/>
		
			<rect x="23.1" y="27.4" transform="matrix(0.7071 -0.7071 0.7071 0.7071 -13.0101 25.275)" class="st0" width="1.7" height="1.8"/>
		
			<rect x="23.1" y="48.5" transform="matrix(0.7071 -0.7071 0.7071 0.7071 -27.8534 31.4237)" class="st0" width="1.8" height="1.7"/>
		
			<rect x="44.1" y="27.5" transform="matrix(0.7071 -0.7071 0.7071 0.7071 -6.8617 40.1185)" class="st0" width="1.8" height="1.7"/>
		
			<rect x="32.7" y="34.6" transform="matrix(0.7071 -0.7072 0.7072 0.7071 -14.1521 36.8593)" class="st0" width="9.4" height="1.7"/>
	</g>
	<g>
		<path class="st0" d="M23.5,9v6.5h4v5.7h13.8v-5.7h4.3V9H23.5z M39.1,20.6L29.9,21v-5.5h9.2V20.6z M43.8,13.7H25.2v-3h18.5V13.7z"
			/>
		<path class="st0" d="M33.3,20.6v-5.1h2.4v4.8"/>
	</g>
</g>
</svg>
