<?xml version="1.0" encoding="utf-8"?>
<!-- Generator: Adobe Illustrator 23.0.1, SVG Export Plug-In . SVG Version: 6.00 Build 0)  -->
<svg version="1.1" id="Layer_1" xmlns="http://www.w3.org/2000/svg" xmlns:xlink="http://www.w3.org/1999/xlink" x="0px" y="0px"
	 viewBox="0 0 69 69" style="enable-background:new 0 0 69 69;" xml:space="preserve">
<style type="text/css">
	.st0{fill:#F36523;stroke:#F36523;stroke-width:0.5;}
</style>
<g>
	<path class="st0" d="M58.7,13.7H54V9H14.7v4.7h-4.5v42.1h4.5V60H54v-4.2h4.8V13.7z M11.8,54.3V15.2h2.9v39.1H11.8z M52.4,58.5H16.3
		V10.5h36.2V58.5z M57.2,54.3H54V15.2h3.2V54.3z"/>
	<rect x="18.6" y="16" class="st0" width="13.7" height="1.5"/>
	<rect x="18.6" y="19.5" class="st0" width="13.7" height="1.5"/>
	<polygon class="st0" points="28.4,23.3 24,26.8 23.1,25.8 21.9,26.9 23.8,28.9 29.3,24.5 	"/>
	<polygon class="st0" points="26,32.2 25,33.2 24,32.2 23,33.3 23.9,34.2 23,35.2 24,36.3 25,35.3 26,36.3 27.1,35.2 26.1,34.2 
		27.1,33.3 	"/>
	<polygon class="st0" points="26,39 25,40 24,39 23,40.1 23.9,41 23,42 24,43.1 25,42.1 26,43.1 27.1,42 26.1,41 27.1,40.1 	"/>
	<polygon class="st0" points="26,45.3 25,46.2 24,45.3 23,46.4 23.9,47.3 23,48.3 24,49.4 25,48.4 26,49.4 27.1,48.3 26.1,47.3 
		27.1,46.4 	"/>
	<polygon class="st0" points="35.7,33.5 29.3,33.5 29.3,35 37.2,35 37.2,18 32.9,18 32.9,19.5 35.7,19.5 	"/>
	<polygon class="st0" points="48.7,40.3 29.3,40.3 29.3,41.8 50.2,41.8 50.2,12.6 38,12.6 38,14.1 48.7,14.1 	"/>
	<rect x="29.3" y="46.6" class="st0" width="20.2" height="1.5"/>
	<rect x="18.6" y="52.1" class="st0" width="30.8" height="1.5"/>
	<path class="st0" d="M39.9,35.8c0,1.7,1.4,3.1,3.1,3.1c1.7,0,3.1-1.4,3.1-3.1c0-1.4-1-2.6-2.3-3v-11c1.3-0.3,2.3-1.5,2.3-3
		c0-1.7-1.4-3.1-3.1-3.1c-1.7,0-3.1,1.4-3.1,3.1c0,1.4,1,2.6,2.3,3v11C40.9,33.1,39.9,34.3,39.9,35.8z M44.5,35.8
		c0,0.9-0.7,1.6-1.6,1.6c-0.9,0-1.6-0.7-1.6-1.6c0-0.9,0.7-1.6,1.6-1.6C43.8,34.2,44.5,34.9,44.5,35.8z M41.4,18.8
		c0-0.9,0.7-1.6,1.6-1.6c0.9,0,1.6,0.7,1.6,1.6s-0.7,1.6-1.6,1.6C42.1,20.3,41.4,19.6,41.4,18.8z"/>
</g>
</svg>
