<?xml version="1.0" encoding="utf-8"?>
<!-- Generator: Adobe Illustrator 23.0.1, SVG Export Plug-In . SVG Version: 6.00 Build 0)  -->
<svg version="1.1" id="Layer_1" xmlns="http://www.w3.org/2000/svg" xmlns:xlink="http://www.w3.org/1999/xlink" x="0px" y="0px"
	 viewBox="0 0 69 69" style="enable-background:new 0 0 69 69;" xml:space="preserve">
<style type="text/css">
	.st0{fill:#F36523;stroke:#F36523;stroke-width:0.4748;}
</style>
<g>
	<path class="st0" d="M26,63H43c2.6,0,4.7-2.1,4.7-4.7V13.6c0-2.6-2.1-4.7-4.7-4.7h-4.9C37.7,7.2,36.3,6,34.5,6s-3.2,1.2-3.7,2.8H26
		c-2.6,0-4.7,2.1-4.7,4.7v44.6C21.2,60.9,23.3,63,26,63z M34.5,7.9c0.7,0,1.3,0.4,1.6,0.9h-3.3C33.2,8.3,33.8,7.9,34.5,7.9z
		 M23.1,13.6c0-1.6,1.3-2.8,2.8-2.8H43c1.6,0,2.8,1.3,2.8,2.8v44.6c0,1.6-1.3,2.8-2.8,2.8H26c-1.6,0-2.8-1.3-2.8-2.8V13.6z"/>
	<path class="st0" d="M26,27.9H43c0.5,0,0.9-0.4,0.9-0.9V15.5c0-0.5-0.4-0.9-0.9-0.9H26c-0.5,0-0.9,0.4-0.9,0.9v11.4
		C25,27.4,25.4,27.9,26,27.9z M26.9,16.5h15.2V26H26.9V16.5z"/>
	<rect x="33.6" y="43" class="st0" width="1.9" height="5.7"/>
	<path class="st0" d="M34.5,58.2c5.2,0,9.5-4.3,9.5-9.5s-4.3-9.5-9.5-9.5S25,43.5,25,48.7S29.3,58.2,34.5,58.2z M34.5,41.1
		c4.2,0,7.6,3.4,7.6,7.6s-3.4,7.6-7.6,7.6s-7.6-3.4-7.6-7.6S30.3,41.1,34.5,41.1z"/>
	<path class="st0" d="M34.5,54.4c3.1,0,5.7-2.6,5.7-5.7c0-1.8-0.8-3.4-2.3-4.5l-1.1,1.5c1,0.7,1.5,1.8,1.5,3c0,2.1-1.7,3.8-3.8,3.8
		s-3.8-1.7-3.8-3.8c0-1.2,0.6-2.3,1.5-3l-1.1-1.5c-1.4,1.1-2.3,2.7-2.3,4.5C28.8,51.9,31.4,54.4,34.5,54.4z"/>
	<path class="st0" d="M26.9,29.8c-0.5,0-0.9,0.4-0.9,0.9v3.8c0,0.5,0.4,0.9,0.9,0.9h5.7c0.5,0,0.9-0.4,0.9-0.9v-3.8
		c0-0.5-0.4-0.9-0.9-0.9H26.9z M31.7,33.6h-3.8v-1.9h3.8V33.6z"/>
	<path class="st0" d="M36.4,29.8c-0.5,0-0.9,0.4-0.9,0.9v3.8c0,0.5,0.4,0.9,0.9,0.9h5.7c0.5,0,0.9-0.4,0.9-0.9v-3.8
		c0-0.5-0.4-0.9-0.9-0.9H36.4z M41.1,33.6h-3.8v-1.9h3.8V33.6z"/>
	<rect x="38.3" y="18.4" class="st0" width="1.9" height="1.9"/>
	<rect x="38.3" y="22.2" class="st0" width="1.9" height="1.9"/>
	<g>
		<path class="st0" d="M11.1,42.2c-0.2-0.5-0.4-1.1-0.5-1.7l-1.8,0.5c0.2,0.6,0.4,1.2,0.6,1.8L11.1,42.2z"/>
		<path class="st0" d="M11.8,21l1.6,1c0.3-0.5,0.7-1,1-1.4L13,19.4C12.6,19.9,12.2,20.4,11.8,21z"/>
		<path class="st0" d="M16.8,51c-0.4-0.4-0.8-0.8-1.2-1.3L14.2,51c0.4,0.5,0.9,0.9,1.3,1.4L16.8,51z"/>
		<path class="st0" d="M12.5,45.5c-0.3-0.5-0.5-1-0.8-1.6L10,44.7c0.3,0.6,0.5,1.2,0.9,1.7L12.5,45.5z"/>
		<path class="st0" d="M8,37.3C8,38,8.1,38.6,8.3,39.2l1.9-0.4c-0.1-0.6-0.2-1.2-0.3-1.7L8,37.3z"/>
		<path class="st0" d="M15.5,16.6C15,17,14.6,17.5,14.2,18l1.4,1.3c0.4-0.4,0.8-0.9,1.2-1.3L15.5,16.6z"/>
		<path class="st0" d="M8,31.6l1.9,0.2c0.1-0.6,0.2-1.2,0.3-1.7l-1.9-0.4C8.1,30.4,8.1,31,8,31.6z"/>
		<path class="st0" d="M7.8,34.5c0,0.3,0,0.6,0,0.9l1.9-0.1c0-0.3,0-0.6,0-0.9c0-0.3,0-0.6,0-0.9l-1.9-0.1
			C7.8,33.8,7.8,34.2,7.8,34.5z"/>
		<path class="st0" d="M10,24.3l1.7,0.8c0.2-0.5,0.5-1.1,0.8-1.6l-1.7-0.9C10.6,23.2,10.3,23.7,10,24.3z"/>
		<path class="st0" d="M8.7,27.9l1.8,0.5c0.2-0.6,0.3-1.1,0.5-1.7l-1.8-0.6C9.1,26.7,8.9,27.3,8.7,27.9z"/>
		<path class="st0" d="M14.4,48.4c-0.4-0.5-0.7-0.9-1-1.4l-1.6,1c0.3,0.5,0.7,1,1.1,1.6L14.4,48.4z"/>
	</g>
	<g>
		<path class="st0" d="M54.6,20.6c0.4,0.5,0.7,0.9,1,1.4l1.6-1c-0.3-0.5-0.7-1-1.1-1.6L54.6,20.6z"/>
		<path class="st0" d="M56.5,23.5c0.3,0.5,0.5,1,0.8,1.6l1.7-0.8c-0.3-0.6-0.5-1.2-0.9-1.7L56.5,23.5z"/>
		<path class="st0" d="M52.2,18c0.4,0.4,0.8,0.8,1.2,1.3l1.4-1.3c-0.4-0.5-0.9-0.9-1.3-1.4L52.2,18z"/>
		<path class="st0" d="M57.9,26.8c0.2,0.5,0.4,1.1,0.5,1.7l1.8-0.5c-0.2-0.6-0.4-1.2-0.6-1.8L57.9,26.8z"/>
		<path class="st0" d="M58.9,30.1c0.1,0.6,0.2,1.2,0.3,1.7l1.9-0.2c-0.1-0.6-0.2-1.3-0.3-1.9L58.9,30.1z"/>
		<path class="st0" d="M59,44.7l-1.7-0.8c-0.2,0.5-0.5,1.1-0.8,1.6l1.7,0.9C58.4,45.8,58.7,45.3,59,44.7z"/>
		<path class="st0" d="M54.5,48.4l1.5,1.2c0.4-0.5,0.8-1,1.1-1.6l-1.6-1C55.2,47.5,54.9,48,54.5,48.4z"/>
		<path class="st0" d="M53.5,52.4c0.5-0.4,0.9-0.9,1.3-1.4l-1.4-1.3c-0.4,0.4-0.8,0.9-1.2,1.3L53.5,52.4z"/>
		<path class="st0" d="M61.2,34.5c0-0.3,0-0.6,0-0.9l-1.9,0.1c0,0.3,0,0.6,0,0.9c0,0.3,0,0.6,0,0.9l1.9,0.1
			C61.2,35.2,61.2,34.8,61.2,34.5z"/>
		<path class="st0" d="M60.3,41.1l-1.8-0.5c-0.2,0.6-0.3,1.1-0.5,1.7l1.8,0.6C59.9,42.3,60.1,41.7,60.3,41.1z"/>
		<path class="st0" d="M61,37.4l-1.9-0.2c-0.1,0.6-0.2,1.2-0.3,1.7l1.9,0.4C60.9,38.6,60.9,38,61,37.4z"/>
	</g>
</g>
</svg>
