<?xml version="1.0" encoding="utf-8"?>
<!-- Generator: Adobe Illustrator 23.0.1, SVG Export Plug-In . SVG Version: 6.00 Build 0)  -->
<svg version="1.1" id="Layer_1" xmlns="http://www.w3.org/2000/svg" xmlns:xlink="http://www.w3.org/1999/xlink" x="0px" y="0px"
	 viewBox="0 0 174 49.7" style="enable-background:new 0 0 174 49.7;" xml:space="preserve">
<style type="text/css">
	.st0{display:none;enable-background:new    ;}
	.st1{font-family:'ArialMT';}
	.st2{font-size:45px;}
	.st3{fill:#FFFFFF;}
</style>
<text transform="matrix(1 0 0 1 59.317 39.9572)" class="st0 st1 st2">Stellar</text>
<g>
	<g>
		<g>
			<path class="st3" d="M60.7,13.4l-3.5,11.1c0,0.1-0.2,0.2-0.3,0.2h-1.8c-0.1,0-0.2-0.1-0.3-0.2l-2.7-8l-2.7,8
				c0,0.1-0.1,0.2-0.3,0.2h-1.8c-0.1,0-0.3-0.1-0.3-0.2l-3.5-11.1c-0.1-0.2,0-0.3,0.2-0.3h1.8c0.1,0,0.2,0,0.3,0.2l2.4,8.4l2.7-8.4
				c0-0.1,0.1-0.1,0.1-0.2c0,0,0.1,0,0.1,0H53c0.1,0,0.1,0,0.1,0c0,0,0.1,0.1,0.1,0.2l2.7,8.4l2.4-8.4c0-0.1,0.1-0.2,0.3-0.2h1.8
				C60.7,13.1,60.8,13.2,60.7,13.4z"/>
			<path class="st3" d="M68.6,16.9v7.6c0,0.1-0.1,0.2-0.2,0.2h-1.5c-0.1,0-0.2-0.1-0.2-0.2l-0.1-0.7c-0.6,0.7-1.4,1.2-2.4,1.2
				c-2.3,0-3.9-1.9-3.9-4.3s1.7-4.3,3.9-4.3c1,0,1.9,0.5,2.5,1.2l0-0.8c0-0.1,0.1-0.2,0.2-0.2h1.5C68.5,16.6,68.6,16.7,68.6,16.9z
				 M66.4,20.7c0-1.2-0.9-2.3-2.1-2.3c-1.2,0-2.1,1-2.1,2.3c0,1.3,0.9,2.3,2.1,2.3C65.5,22.9,66.4,21.9,66.4,20.7z"/>
			<path class="st3" d="M74.8,16.9v1.3c0,0.1-0.1,0.2-0.2,0.2h-1.2v6.1c0,0.1-0.1,0.2-0.2,0.2h-1.7c-0.1,0-0.2-0.1-0.2-0.2v-6.1H70
				c-0.1,0-0.2-0.1-0.2-0.2v-1.3c0-0.1,0.1-0.2,0.2-0.2h1.2v-2.2c0-0.1,0.1-0.2,0.2-0.2h1.7c0.1,0,0.2,0.1,0.2,0.2v2.2h1.2
				C74.7,16.6,74.8,16.7,74.8,16.9z"/>
			<path class="st3" d="M82.9,21.5h-5.2c0.2,1.1,1,1.7,2.3,1.7c0.6,0,1.2-0.2,1.7-0.6c0.1-0.1,0.2-0.1,0.4,0l0.7,0.7
				c0.1,0.1,0.1,0.2,0,0.4c-0.8,0.8-1.8,1.2-3,1.2c-2.5,0-4.3-1.9-4.3-4.3s1.7-4.3,4.1-4.3c2.3,0,3.9,1.9,3.9,4.1
				C83.5,21.1,83.4,21.5,82.9,21.5z M77.6,20h3.9c-0.1-1.1-0.9-1.8-1.9-1.8C78.6,18.3,77.8,18.9,77.6,20z"/>
			<path class="st3" d="M90.1,17.1l-0.5,1.2c-0.1,0.2-0.2,0.2-0.4,0.2c-0.2,0-0.4-0.1-0.7-0.1c-1,0-1.7,0.8-1.7,1.8v4.3
				c0,0.1-0.1,0.2-0.2,0.2h-1.7c-0.1,0-0.2-0.1-0.2-0.2v-7.6c0-0.1,0.1-0.2,0.2-0.2h1.6c0.1,0,0.2,0.1,0.2,0.2l0.1,0.9
				c0.4-0.8,1.1-1.3,2.1-1.3c0.5,0,0.9,0.2,1.1,0.4C90.2,16.9,90.2,17,90.1,17.1z"/>
			<path class="st3" d="M101.8,23v1.5c0,0.1-0.1,0.2-0.2,0.2h-6.1c-0.1,0-0.2-0.1-0.2-0.2V13.4c0-0.1,0.1-0.2,0.2-0.2h6.1
				c0.1,0,0.2,0.1,0.2,0.2v1.5c0,0.1-0.1,0.2-0.2,0.2h-4.1v2.6h3.8c0.1,0,0.2,0.1,0.2,0.2v1.5c0,0.1-0.1,0.2-0.2,0.2h-3.8v3h4.1
				C101.7,22.7,101.8,22.8,101.8,23z"/>
			<path class="st3" d="M109.7,14.1l-0.8,0.8c-0.1,0.1-0.1,0.1-0.2,0c-0.4-0.2-0.8-0.4-1.3-0.4c-0.8,0-0.9,0.4-0.9,1v1.1h1.6
				c0.1,0,0.2,0.1,0.2,0.2v1.3c0,0.1-0.1,0.2-0.2,0.2h-1.6v6.1c0,0.1-0.1,0.2-0.2,0.2h-1.7c-0.1,0-0.2-0.1-0.2-0.2v-6.1h-1
				c-0.1,0-0.2-0.1-0.2-0.2v-1.3c0-0.1,0.1-0.2,0.2-0.2h1v-1.4c0-1.8,1.1-2.7,2.9-2.7c1.3,0,2.2,0.7,2.6,1.3
				C109.8,13.9,109.7,14,109.7,14.1z"/>
			<path class="st3" d="M116.2,14.1l-0.8,0.8c-0.1,0.1-0.1,0.1-0.2,0c-0.4-0.2-0.8-0.4-1.3-0.4c-0.8,0-0.9,0.4-0.9,1v1.1h1.6
				c0.1,0,0.2,0.1,0.2,0.2v1.3c0,0.1-0.1,0.2-0.2,0.2h-1.6v6.1c0,0.1-0.1,0.2-0.2,0.2h-1.7c-0.1,0-0.2-0.1-0.2-0.2v-6.1h-1
				c-0.1,0-0.2-0.1-0.2-0.2v-1.3c0-0.1,0.1-0.2,0.2-0.2h1v-1.4c0-1.8,1.1-2.7,2.9-2.7c1.3,0,2.2,0.7,2.6,1.3
				C116.2,13.9,116.2,14,116.2,14.1z"/>
			<path class="st3" d="M116.6,13.9c0-0.7,0.5-1.2,1.2-1.2c0.7,0,1.2,0.5,1.2,1.2s-0.5,1.2-1.2,1.2
				C117.1,15.1,116.6,14.5,116.6,13.9z M116.9,16.6h1.7c0.1,0,0.2,0.1,0.2,0.2v7.6c0,0.1-0.1,0.2-0.2,0.2h-1.7
				c-0.1,0-0.2-0.1-0.2-0.2v-7.6C116.7,16.7,116.8,16.6,116.9,16.6z"/>
			<path class="st3" d="M126,22.2c0.1-0.1,0.2-0.1,0.4,0l1,1c0.1,0.1,0.1,0.2,0,0.3c-0.8,0.9-1.9,1.4-3.2,1.4
				c-2.3,0-4.1-1.9-4.1-4.3s1.8-4.3,4.1-4.3c1.3,0,2.4,0.6,3.1,1.4c0.1,0.1,0.1,0.2,0,0.3l-1,1c-0.1,0.1-0.2,0.1-0.4,0
				c-0.5-0.4-0.9-0.7-1.7-0.7c-1.2,0-2.1,1-2.1,2.2c0,1.3,0.9,2.2,2.1,2.2C125.1,22.9,125.6,22.6,126,22.2z"/>
			<path class="st3" d="M128.7,13.9c0-0.7,0.5-1.2,1.2-1.2c0.7,0,1.2,0.5,1.2,1.2s-0.5,1.2-1.2,1.2
				C129.2,15.1,128.7,14.5,128.7,13.9z M129.1,16.6h1.7c0.1,0,0.2,0.1,0.2,0.2v7.6c0,0.1-0.1,0.2-0.2,0.2h-1.7
				c-0.1,0-0.2-0.1-0.2-0.2v-7.6C128.8,16.7,128.9,16.6,129.1,16.6z"/>
			<path class="st3" d="M139.6,21.5h-5.2c0.2,1.1,1,1.7,2.3,1.7c0.6,0,1.2-0.2,1.7-0.6c0.1-0.1,0.2-0.1,0.4,0l0.7,0.7
				c0.1,0.1,0.1,0.2,0,0.4c-0.8,0.8-1.8,1.2-3,1.2c-2.5,0-4.3-1.9-4.3-4.3s1.7-4.3,4.1-4.3c2.3,0,3.9,1.9,3.9,4.1
				C140.2,21.1,140.1,21.5,139.6,21.5z M134.4,20h3.9c-0.1-1.1-0.9-1.8-1.9-1.8C135.4,18.3,134.6,18.9,134.4,20z"/>
			<path class="st3" d="M149.1,19.8v4.6c0,0.1-0.1,0.2-0.2,0.2h-1.7c-0.1,0-0.2-0.1-0.2-0.2v-4.2c0-1.3-0.7-1.8-1.5-1.8
				c-1.2,0-1.8,1.2-1.8,1.6v4.4c0,0.1-0.1,0.2-0.2,0.2h-1.7c-0.1,0-0.2-0.1-0.2-0.2v-7.6c0-0.1,0.1-0.2,0.2-0.2h1.6
				c0.1,0,0.2,0.1,0.2,0.2l0.1,1.1v0c0.5-0.9,1.4-1.5,2.6-1.5C147.8,16.4,149.1,17.7,149.1,19.8z"/>
			<path class="st3" d="M156.3,22.2c0.1-0.1,0.2-0.1,0.4,0l1,1c0.1,0.1,0.1,0.2,0,0.3c-0.8,0.9-1.9,1.4-3.2,1.4
				c-2.3,0-4.1-1.9-4.1-4.3s1.8-4.3,4.1-4.3c1.3,0,2.4,0.6,3.1,1.4c0.1,0.1,0.1,0.2,0,0.3l-1,1c-0.1,0.1-0.2,0.1-0.4,0
				c-0.5-0.4-0.9-0.7-1.7-0.7c-1.2,0-2.1,1-2.1,2.2c0,1.3,0.9,2.2,2.1,2.2C155.3,22.9,155.8,22.6,156.3,22.2z"/>
			<path class="st3" d="M166.7,16.9l-4.3,10.8c0,0.1-0.2,0.2-0.3,0.2h-1.7c-0.2,0-0.3-0.1-0.2-0.3l1.2-2.8l-3.1-7.8
				c-0.1-0.2,0-0.3,0.2-0.3h1.7c0.1,0,0.2,0.1,0.3,0.2l2,5.4l2-5.4c0-0.1,0.2-0.2,0.3-0.2h1.7C166.7,16.6,166.8,16.7,166.7,16.9z"/>
		</g>
		<g>
			<path class="st3" d="M53.2,30v1.5c0,0.1-0.1,0.2-0.2,0.2h-2.5v9.3c0,0.1-0.1,0.2-0.2,0.2h-1.8c-0.1,0-0.2-0.1-0.2-0.2v-9.3h-2.5
				c-0.1,0-0.2-0.1-0.2-0.2V30c0-0.1,0.1-0.2,0.2-0.2H53C53.1,29.7,53.2,29.8,53.2,30z"/>
			<path class="st3" d="M59.6,38.1h-5.2c0.2,1.1,1,1.7,2.3,1.7c0.6,0,1.2-0.2,1.7-0.6c0.1-0.1,0.2-0.1,0.4,0l0.7,0.7
				c0.1,0.1,0.1,0.2,0,0.4c-0.8,0.8-1.8,1.2-3,1.2c-2.5,0-4.3-1.9-4.3-4.3c0-2.4,1.7-4.3,4.1-4.3c2.3,0,3.9,1.9,3.9,4.1
				C60.2,37.7,60.1,38.1,59.6,38.1z M54.3,36.6h3.9c-0.1-1.1-0.9-1.8-1.9-1.8C55.3,34.9,54.5,35.5,54.3,36.6z"/>
			<path class="st3" d="M66.8,38.8c0.1-0.1,0.2-0.1,0.4,0l1,1c0.1,0.1,0.1,0.2,0,0.3c-0.8,0.9-1.9,1.4-3.2,1.4
				c-2.3,0-4.1-1.9-4.1-4.3c0-2.4,1.8-4.3,4.1-4.3c1.3,0,2.4,0.6,3.1,1.4c0.1,0.1,0.1,0.2,0,0.3l-1,1c-0.1,0.1-0.2,0.1-0.4,0
				c-0.5-0.4-0.9-0.7-1.7-0.7c-1.2,0-2.1,1-2.1,2.2c0,1.3,0.9,2.2,2.1,2.2C65.9,39.5,66.4,39.2,66.8,38.8z"/>
			<path class="st3" d="M77.1,36.4v4.6c0,0.1-0.1,0.2-0.2,0.2h-1.7c-0.1,0-0.2-0.1-0.2-0.2v-4.2c0-1.3-0.7-1.8-1.5-1.8
				c-1.2,0-1.8,1.2-1.8,1.6v4.4c0,0.1-0.1,0.2-0.2,0.2h-1.7c-0.1,0-0.2-0.1-0.2-0.2V29.5c0-0.1,0.1-0.2,0.2-0.2h1.7
				c0.1,0,0.2,0.1,0.2,0.2v5c0.5-0.9,1.4-1.5,2.6-1.5C75.8,33,77.1,34.3,77.1,36.4z"/>
			<path class="st3" d="M86.4,36.4v4.6c0,0.1-0.1,0.2-0.2,0.2h-1.7c-0.1,0-0.2-0.1-0.2-0.2v-4.2c0-1.3-0.7-1.8-1.5-1.8
				c-1.2,0-1.8,1.2-1.8,1.6v4.4c0,0.1-0.1,0.2-0.2,0.2h-1.7c-0.1,0-0.2-0.1-0.2-0.2v-7.6c0-0.1,0.1-0.2,0.2-0.2h1.6
				c0.1,0,0.2,0.1,0.2,0.2l0.1,1.1v0c0.5-0.9,1.4-1.5,2.6-1.5C85.1,33,86.4,34.3,86.4,36.4z"/>
			<path class="st3" d="M87.5,37.3c0-2.4,1.9-4.3,4.2-4.3s4.2,1.9,4.2,4.3c0,2.4-1.9,4.3-4.2,4.3S87.5,39.6,87.5,37.3z M93.8,37.3
				c0-1.3-0.9-2.2-2.1-2.2c-1.2,0-2.1,0.9-2.1,2.2c0,1.3,0.9,2.2,2.1,2.2C92.9,39.5,93.8,38.6,93.8,37.3z"/>
			<path class="st3" d="M97.4,29.2h1.7c0.1,0,0.2,0.1,0.2,0.2v11.6c0,0.1-0.1,0.2-0.2,0.2h-1.7c-0.1,0-0.2-0.1-0.2-0.2V29.5
				C97.2,29.3,97.3,29.2,97.4,29.2z"/>
			<path class="st3" d="M100.6,37.3c0-2.4,1.9-4.3,4.2-4.3c2.3,0,4.2,1.9,4.2,4.3c0,2.4-1.9,4.3-4.2,4.3
				C102.5,41.5,100.6,39.6,100.6,37.3z M106.9,37.3c0-1.3-0.9-2.2-2.1-2.2c-1.2,0-2.1,0.9-2.1,2.2c0,1.3,0.9,2.2,2.1,2.2
				C106,39.5,106.9,38.6,106.9,37.3z"/>
			<path class="st3" d="M118.4,33.4v7.8c0,2.6-2.4,3.4-4.3,3.4c-1.4,0-2.6-0.4-3.5-1c-0.1-0.1-0.1-0.2-0.1-0.3l0.5-1
				c0.1-0.1,0.2-0.2,0.3-0.1c0.7,0.4,1.5,0.6,2.5,0.6s2.4-0.4,2.4-1.7v-0.9c-0.6,0.7-1.4,1.2-2.5,1.2c-2.3,0-3.9-1.9-3.9-4.2
				c0-2.3,1.7-4.2,3.9-4.2c1,0,1.9,0.5,2.5,1.2l0-0.7c0-0.1,0.1-0.2,0.2-0.2h1.5C118.3,33.2,118.4,33.3,118.4,33.4z M116.2,37.2
				c0-1.1-0.9-2.2-2.1-2.2c-1.2,0-2.1,1-2.1,2.2c0,1.2,0.9,2.2,2.1,2.2C115.3,39.4,116.2,38.3,116.2,37.2z"/>
			<path class="st3" d="M119.8,30.5c0-0.7,0.5-1.2,1.2-1.2c0.7,0,1.2,0.5,1.2,1.2s-0.5,1.2-1.2,1.2
				C120.4,31.7,119.8,31.1,119.8,30.5z M120.2,33.2h1.7c0.1,0,0.2,0.1,0.2,0.2v7.6c0,0.1-0.1,0.2-0.2,0.2h-1.7
				c-0.1,0-0.2-0.1-0.2-0.2v-7.6C119.9,33.3,120,33.2,120.2,33.2z"/>
			<path class="st3" d="M130.7,38.1h-5.2c0.2,1.1,1,1.7,2.3,1.7c0.6,0,1.2-0.2,1.7-0.6c0.1-0.1,0.2-0.1,0.4,0l0.7,0.7
				c0.1,0.1,0.1,0.2,0,0.4c-0.8,0.8-1.8,1.2-3,1.2c-2.5,0-4.3-1.9-4.3-4.3c0-2.4,1.7-4.3,4.1-4.3c2.3,0,3.9,1.9,3.9,4.1
				C131.3,37.7,131.2,38.1,130.7,38.1z M125.5,36.6h3.9c-0.1-1.1-0.9-1.8-1.9-1.8C126.5,34.9,125.7,35.5,125.5,36.6z"/>
			<path class="st3" d="M138.3,39c0,1.6-1.6,2.5-3.1,2.5c-1.4,0-2.5-0.7-3.1-1.4c-0.1-0.1-0.1-0.2,0-0.3l0.6-0.9
				c0.1-0.1,0.2-0.1,0.4,0c0.7,0.4,1.4,0.7,2,0.7c0.5,0,1-0.2,1-0.7c0-1.3-3.9-0.8-3.9-3.5c0-1.6,1.4-2.5,2.8-2.5
				c1,0,2.1,0.4,2.8,1.2c0.1,0.1,0.1,0.2,0,0.3l-0.6,0.8c-0.1,0.1-0.2,0.1-0.4,0c-0.6-0.4-1-0.6-1.6-0.6c-0.5,0-0.9,0.3-0.9,0.7
				C134.4,36.8,138.3,36.1,138.3,39z"/>
		</g>
		<g>
			<path class="st3" d="M138.9,30.8V31c0,0,0,0,0,0h-0.6v1.3c0,0,0,0,0,0H138c0,0,0,0,0,0v-1.3h-0.6c0,0,0,0,0,0v-0.2c0,0,0,0,0,0
				L138.9,30.8C138.8,30.8,138.9,30.8,138.9,30.8z M141.1,30.8v1.5c0,0,0,0,0,0h-0.2c0,0,0,0,0,0v-1l-0.5,1c0,0,0,0-0.1,0h-0.2
				c0,0,0,0-0.1,0l-0.5-1v1c0,0,0,0,0,0h-0.2c0,0,0,0,0,0v-1.5c0,0,0,0,0,0h0.3c0,0,0,0,0.1,0l0.6,1.2l0.6-1.2c0,0,0,0,0.1,0
				L141.1,30.8C141.1,30.8,141.1,30.8,141.1,30.8z"/>
		</g>
	</g>
	<path class="st3" d="M38.2,29.7c0-9.1-15.1-26.8-17.5-29.5C20.4,0,20.1,0,20,0.1c-0.8,0.9-3.1,3.6-5.8,7.1c-0.2,0.3-0.2,0.7,0,1
		c5.3,6.6,13.5,18,13.5,24.7c0,1.7-0.2,3.3-0.7,4.9c4.2-0.4,8-2.4,10.9-5.2C38,31.7,38.2,30.7,38.2,29.7z"/>
	<path class="st3" d="M24.6,39.7c-0.6,0.1-1.2,0.1-1.9,0.1c-9.9,0-17.9-8-17.9-17.9c0-0.8,0.1-1.7,0.3-2.6c0.1-0.3-0.3-0.4-0.5-0.2
		C2.1,23.7,0,28.2,0,31.5c0,9.9,8,17.9,17.9,17.9c0,0,0,0-0.1,0C21,47.1,23.5,43.7,24.6,39.7z"/>
	<path class="st3" d="M22.4,49.5c0.4,0,0.7-0.1,1.1-0.2c0.2,0,0.5-0.1,0.7-0.2c0.3-0.1,0.6-0.2,0.9-0.2c0.2-0.1,0.5-0.2,0.7-0.2
		c0.3-0.1,0.6-0.2,0.8-0.3c0.3-0.1,0.5-0.2,0.7-0.3c0.2-0.1,0.5-0.2,0.7-0.4c0.3-0.1,0.5-0.3,0.8-0.4c0.2-0.1,0.4-0.2,0.6-0.4
		c0.3-0.2,0.5-0.3,0.8-0.5c0.2-0.1,0.3-0.2,0.5-0.3c0.3-0.2,0.6-0.4,0.9-0.7c0.1-0.1,0.1-0.1,0.2-0.2c2.2-2,4-4.5,5-7.4c0,0,0,0,0,0
		c0.2-0.5,0.3-1,0.5-1.5c0,0,0,0,0,0c0.1-0.5,0.2-1,0.3-1.5l0,0c-2.8,2.9-6.6,4.8-10.9,5.2c-1.1,3.9-3.6,7.3-6.8,9.7c0,0,0,0,0.1,0
		c0.6,0,1.2,0,1.7-0.1C22,49.6,22.2,49.5,22.4,49.5z"/>
</g>
</svg>
